<svg width="64" height="64" viewBox="0 0 64 64" fill="none" xmlns="http://www.w3.org/2000/svg">
<path d="M34 8V12H38V16H42V20H46V24H50V28H54V48H50V52H34V48H36V44H34V24H38V20H34V16H30V20H26V24H30V48H28V52H14V48H10V28H14V24H18V20H22V16H26V12H30V8H34ZM24 44V48H28V44H24ZM16 32V36H12V40H16V44H20V40H24V36H20V32H16ZM36 40V44H40V40H36ZM44 28V32H40V36H44V40H48V36H52V32H48V28H44Z" fill="url(#paint0_linear_2224_178)"/>
<defs>
<linearGradient id="paint0_linear_2224_178" x1="41" y1="10" x2="25.5" y2="54.5" gradientUnits="userSpaceOnUse">
<stop stop-color="#35C6F5"/>
<stop offset="1" stop-color="#08A1D3"/>
</linearGradient>
</defs>
</svg>
